<?xml version="1.0" encoding="UTF-8" standalone="no"?>
<!DOCTYPE svg PUBLIC "-//W3C//DTD SVG 1.1//EN" "http://www.w3.org/Graphics/SVG/1.1/DTD/svg11.dtd">
<svg width="100%" height="100%" viewBox="0 0 250 310" version="1.1" xmlns="http://www.w3.org/2000/svg" xmlns:xlink="http://www.w3.org/1999/xlink" xml:space="preserve" xmlns:serif="http://www.serif.com/" style="fill-rule:evenodd;clip-rule:evenodd;stroke-linejoin:round;stroke-miterlimit:2;">
    <g transform="matrix(1,0,0,1,-3064,-522.43)">
        <g id="Site-Logo" serif:id="Site Logo" transform="matrix(1.08796,0,0,0.739058,-273.864,145.039)">
            <rect x="3067.99" y="510.638" width="229.787" height="419.453" style="fill:none;"/>
            <g id="Speakers" transform="matrix(0.073374,0,0,0.111142,3074.11,547.784)">
                <g id="Woofer" transform="matrix(0.387056,0,0,0.441659,892.714,1430.31)">
                    <g transform="matrix(1,0,0,1,-15.6981,376.776)">
                        <ellipse cx="1552.98" cy="1559.75" rx="1092.98" ry="957.853" style="fill:url(#_Radial1);"/>
                        <path d="M1552.98,324.753C1156.79,324.753 797.87,466.327 539.837,695.682C289.664,918.051 134.6,1223.12 134.6,1559.75C134.6,1896.39 289.664,2201.45 539.837,2423.82C797.87,2653.18 1156.79,2794.75 1552.98,2794.75C1949.18,2794.75 2308.1,2653.18 2566.13,2423.82C2816.3,2201.45 2971.37,1896.39 2971.37,1559.75C2971.37,1223.12 2816.3,918.051 2566.13,695.682C2308.1,466.327 1949.18,324.753 1552.98,324.753ZM1552.98,879.046C1765.62,879.046 1957.73,956.074 2096.22,1079.17C2235.28,1202.77 2320.56,1372.64 2320.56,1559.75C2320.56,1746.86 2235.28,1916.73 2096.22,2040.33C1957.73,2163.43 1765.62,2240.46 1552.98,2240.46C1340.34,2240.46 1148.24,2163.43 1009.75,2040.33C870.693,1916.73 785.409,1746.86 785.409,1559.75C785.409,1372.64 870.693,1202.77 1009.75,1079.17C1148.24,956.074 1340.34,879.046 1552.98,879.046Z" style="fill:rgb(33,0,14);"/>
                    </g>
                    <g transform="matrix(0.846895,0,0,0.884591,219.023,551.336)">
                        <ellipse cx="1562.64" cy="1580.17" rx="313.509" ry="236.724" style="fill:rgb(149,144,141);"/>
                        <path d="M1562.64,1083.77C1207.3,1083.77 930.673,1311.85 930.673,1580.17C930.673,1848.48 1207.3,2076.57 1562.64,2076.57C1917.99,2076.57 2194.62,1848.48 2194.62,1580.17C2194.62,1311.85 1917.99,1083.77 1562.64,1083.77ZM1562.64,1343.44C1735.67,1343.44 1876.15,1449.52 1876.15,1580.17C1876.15,1710.82 1735.67,1816.89 1562.64,1816.89C1389.61,1816.89 1249.14,1710.82 1249.14,1580.17C1249.14,1449.52 1389.61,1343.44 1562.64,1343.44Z" style="fill:rgb(92,229,255);"/>
                    </g>
                </g>
                <g id="Mids" transform="matrix(0.224492,0,0,0.256162,1142.62,703.481)">
                    <g transform="matrix(1,0,0,1,-15.6981,376.776)">
                        <ellipse cx="1552.98" cy="1559.75" rx="1092.98" ry="957.853" style="fill:url(#_Radial2);"/>
                        <path d="M1552.98,230.247C1125.5,230.247 738.133,382.826 459.719,630.298C190.599,869.507 23.638,1197.62 23.638,1559.75C23.638,1921.88 190.599,2250 459.719,2489.21C738.133,2736.68 1125.5,2889.26 1552.98,2889.26C1980.47,2889.26 2367.84,2736.68 2646.25,2489.21C2915.37,2250 3082.33,1921.88 3082.33,1559.75C3082.33,1197.62 2915.37,869.507 2646.25,630.298C2367.84,382.826 1980.47,230.247 1552.98,230.247ZM1552.98,973.552C1734.33,973.552 1898,1039.57 2016.1,1144.56C2136.21,1251.31 2209.6,1398.13 2209.6,1559.75C2209.6,1721.37 2136.21,1868.19 2016.1,1974.95C1898,2079.93 1734.33,2145.95 1552.98,2145.95C1371.64,2145.95 1207.97,2079.93 1089.87,1974.95C969.758,1868.19 896.371,1721.37 896.371,1559.75C896.371,1398.13 969.758,1251.31 1089.87,1144.56C1207.97,1039.57 1371.64,973.552 1552.98,973.552Z" style="fill:rgb(33,0,14);"/>
                    </g>
                    <g transform="matrix(0.846895,0,0,0.884591,219.023,551.336)">
                        <ellipse cx="1562.64" cy="1580.17" rx="313.509" ry="236.724" style="fill:rgb(149,144,141);"/>
                        <path d="M1562.64,671.868C918.031,671.868 425.524,1093.43 425.524,1580.17C425.524,2066.9 918.031,2488.47 1562.64,2488.47C2207.26,2488.47 2699.76,2066.9 2699.76,1580.17C2699.76,1093.43 2207.26,671.868 1562.64,671.868ZM1562.64,2015.02C1263.8,2015.02 1052.54,1805.82 1052.54,1580.17C1052.54,1354.51 1263.8,1145.32 1562.64,1145.32C1861.49,1145.32 2072.75,1354.51 2072.75,1580.17C2072.75,1805.82 1861.49,2015.02 1562.64,2015.02Z" style="fill:rgb(92,229,255);"/>
                    </g>
                </g>
                <g id="Tweeter" transform="matrix(0.0851523,0,0,0.097165,1356.83,312.824)">
                    <g transform="matrix(1,0,0,1,-15.6981,376.776)">
                        <ellipse cx="1552.98" cy="1559.75" rx="1092.98" ry="957.853" style="fill:url(#_Radial3);"/>
                        <path d="M1552.98,-97.966C1016.81,-97.966 530.674,92.832 181.474,403.221C-153.444,700.915 -361.724,1109.09 -361.724,1559.75C-361.724,2010.42 -153.444,2418.59 181.474,2716.28C530.674,3026.67 1016.81,3217.47 1552.98,3217.47C2089.16,3217.47 2575.29,3026.67 2924.49,2716.28C3259.41,2418.59 3467.69,2010.42 3467.69,1559.75C3467.69,1109.09 3259.41,700.915 2924.49,403.221C2575.29,92.832 2089.16,-97.966 1552.98,-97.966ZM1552.98,1301.76C1625.65,1301.76 1690.53,1329.57 1737.86,1371.63C1792.17,1419.9 1824.24,1486.67 1824.24,1559.75C1824.24,1632.83 1792.17,1699.6 1737.86,1747.88C1690.53,1789.94 1625.65,1817.74 1552.98,1817.74C1480.32,1817.74 1415.44,1789.94 1368.11,1747.88C1313.8,1699.6 1281.73,1632.83 1281.73,1559.75C1281.73,1486.67 1313.8,1419.9 1368.11,1371.63C1415.44,1329.57 1480.32,1301.76 1552.98,1301.76Z" style="fill:rgb(33,0,14);"/>
                    </g>
                    <g transform="matrix(1.31342,0,0,1.44066,-509.992,-341.969)">
                        <ellipse cx="1562.64" cy="1580.17" rx="313.509" ry="236.724" style="fill:rgb(149,144,141);"/>
                        <path d="M1562.64,618.689C867.33,618.689 315.749,1055.15 315.749,1580.17C315.749,2105.18 867.33,2541.64 1562.64,2541.64C2257.96,2541.64 2809.54,2105.18 2809.54,1580.17C2809.54,1055.15 2257.96,618.689 1562.64,618.689ZM1562.64,2068.2C1213.35,2068.2 942.767,1843.91 942.767,1580.17C942.767,1316.42 1213.35,1092.14 1562.64,1092.14C1911.94,1092.14 2182.52,1316.42 2182.52,1580.17C2182.52,1843.91 1911.94,2068.2 1562.64,2068.2Z" style="fill:rgb(92,229,255);"/>
                    </g>
                </g>
                <g transform="matrix(3.87497,0,0,2.94038,-398.885,-441.83)">
                    <path d="M837.089,399.359C837.089,251.778 743.537,131.96 628.306,131.96L345.439,131.96C230.208,131.96 136.655,251.778 136.655,399.359L136.655,968.66C136.655,1116.24 230.208,1236.06 345.439,1236.06C345.439,1236.06 628.306,1236.06 628.306,1236.06C743.537,1236.06 837.089,1116.24 837.089,968.66C837.089,968.66 837.089,399.359 837.089,399.359ZM769.74,399.359C769.74,299.384 706.366,218.218 628.306,218.218L345.439,218.218C267.379,218.218 204.005,299.384 204.005,399.359L204.005,968.66C204.005,1068.63 267.379,1149.8 345.439,1149.8L628.306,1149.8C706.366,1149.8 769.74,1068.63 769.74,968.66L769.74,399.359Z" style="fill:rgb(119,64,46);"/>
                </g>
            </g>
        </g>
    </g>
    <defs>
        <radialGradient id="_Radial1" cx="0" cy="0" r="1" gradientUnits="userSpaceOnUse" gradientTransform="matrix(1092.98,0,0,957.853,1552.98,1559.75)"><stop offset="0" style="stop-color:black;stop-opacity:1"/><stop offset="0.74" style="stop-color:rgb(16,0,23);stop-opacity:0.94"/><stop offset="0.8" style="stop-color:rgb(63,40,35);stop-opacity:1"/><stop offset="0.84" style="stop-color:rgb(57,35,33);stop-opacity:0.98"/><stop offset="0.85" style="stop-color:rgb(39,19,29);stop-opacity:0.93"/><stop offset="0.86" style="stop-color:rgb(16,0,23);stop-opacity:0.86"/><stop offset="0.92" style="stop-color:rgb(63,40,35);stop-opacity:1"/><stop offset="0.93" style="stop-color:rgb(89,35,45);stop-opacity:1"/><stop offset="0.95" style="stop-color:rgb(112,31,53);stop-opacity:1"/><stop offset="1" style="stop-color:rgb(120,29,56);stop-opacity:1"/></radialGradient>
        <radialGradient id="_Radial2" cx="0" cy="0" r="1" gradientUnits="userSpaceOnUse" gradientTransform="matrix(1092.98,0,0,957.853,1552.98,1559.75)"><stop offset="0" style="stop-color:black;stop-opacity:1"/><stop offset="0.74" style="stop-color:rgb(16,0,23);stop-opacity:0.94"/><stop offset="0.8" style="stop-color:rgb(63,40,35);stop-opacity:1"/><stop offset="0.84" style="stop-color:rgb(57,35,33);stop-opacity:0.98"/><stop offset="0.85" style="stop-color:rgb(39,19,29);stop-opacity:0.93"/><stop offset="0.86" style="stop-color:rgb(16,0,23);stop-opacity:0.86"/><stop offset="0.92" style="stop-color:rgb(63,40,35);stop-opacity:1"/><stop offset="0.93" style="stop-color:rgb(89,35,45);stop-opacity:1"/><stop offset="0.95" style="stop-color:rgb(112,31,53);stop-opacity:1"/><stop offset="1" style="stop-color:rgb(120,29,56);stop-opacity:1"/></radialGradient>
        <radialGradient id="_Radial3" cx="0" cy="0" r="1" gradientUnits="userSpaceOnUse" gradientTransform="matrix(1092.98,0,0,957.853,1552.98,1559.75)"><stop offset="0" style="stop-color:black;stop-opacity:1"/><stop offset="0.74" style="stop-color:rgb(16,0,23);stop-opacity:0.94"/><stop offset="0.8" style="stop-color:rgb(63,40,35);stop-opacity:1"/><stop offset="0.84" style="stop-color:rgb(57,35,33);stop-opacity:0.98"/><stop offset="0.85" style="stop-color:rgb(39,19,29);stop-opacity:0.93"/><stop offset="0.86" style="stop-color:rgb(16,0,23);stop-opacity:0.86"/><stop offset="0.92" style="stop-color:rgb(63,40,35);stop-opacity:1"/><stop offset="0.93" style="stop-color:rgb(89,35,45);stop-opacity:1"/><stop offset="0.95" style="stop-color:rgb(112,31,53);stop-opacity:1"/><stop offset="1" style="stop-color:rgb(120,29,56);stop-opacity:1"/></radialGradient>
    </defs>
</svg>
