<?xml version="1.0" standalone="no"?>
<!DOCTYPE svg PUBLIC "-//W3C//DTD SVG 20010904//EN"
 "http://www.w3.org/TR/2001/REC-SVG-20010904/DTD/svg10.dtd">
<svg version="1.0" xmlns="http://www.w3.org/2000/svg"
 width="620.000000pt" height="620.000000pt" viewBox="0 0 620.000000 620.000000"
 preserveAspectRatio="xMidYMid meet">
<metadata>
Created by potrace 1.11, written by Peter Selinger 2001-2013
</metadata>
<g transform="translate(0.000000,620.000000) scale(0.100000,-0.100000)"
fill="#000000" stroke="none">
<path d="M2125 5733 c-217 -21 -429 -95 -610 -214 -99 -65 -284 -249 -348
-346 -99 -149 -167 -317 -204 -498 -17 -85 -18 -181 -18 -1600 0 -1382 1
-1518 17 -1600 100 -529 492 -928 1021 -1042 75 -17 165 -18 1127 -18 983 0
1050 1 1130 19 263 57 485 181 670 372 138 143 231 297 295 487 67 202 65 133
65 1783 0 1324 -2 1501 -16 1585 -46 268 -168 504 -364 699 -178 179 -389 293
-648 352 -96 22 -105 22 -1087 23 -545 1 -1008 0 -1030 -2z m2063 -431 c355
-93 612 -376 662 -729 8 -55 10 -514 8 -1553 l-3 -1475 -23 -73 c-68 -220
-185 -383 -362 -501 -49 -32 -124 -73 -168 -90 -162 -62 -158 -62 -1233 -59
l-974 3 -80 23 c-168 47 -301 127 -421 255 -117 122 -196 279 -223 442 -9 52
-11 446 -9 1570 4 1695 -4 1530 88 1720 133 274 399 457 705 485 44 4 501 7
1015 6 926 -2 936 -3 1018 -24z"/>
<path d="M3013 5074 c-49 -18 -113 -78 -139 -132 -22 -47 -29 -135 -15 -189
28 -104 136 -186 246 -187 223 -1 344 263 198 433 -70 82 -185 112 -290 75z
m164 -39 c63 -19 126 -84 143 -146 45 -166 -108 -316 -274 -269 -203 56 -208
345 -7 416 48 17 77 17 138 -1z"/>
<path d="M3034 4906 c-75 -75 -23 -192 84 -189 29 1 44 9 70 38 31 34 34 41
29 83 -7 62 -49 102 -108 102 -33 0 -47 -6 -75 -34z m106 -44 c47 -38 -5 -102
-59 -72 -25 13 -27 47 -4 72 20 23 35 23 63 0z"/>
<path d="M3005 4230 c-290 -62 -480 -337 -437 -632 23 -163 134 -327 273 -406
67 -38 192 -72 263 -72 186 1 373 107 470 269 185 306 40 707 -295 822 -71 24
-208 34 -274 19z m258 -255 c204 -101 252 -372 93 -530 -79 -78 -131 -100
-246 -100 -86 0 -101 3 -153 30 -33 16 -78 51 -102 78 -133 147 -106 382 56
497 94 68 244 78 352 25z"/>
<path d="M3043 3819 c-118 -58 -117 -231 1 -288 50 -25 75 -26 120 -7 95 40
130 160 72 249 -20 30 -90 67 -127 67 -13 0 -43 -9 -66 -21z m135 -95 c29 -33
28 -66 -2 -101 -19 -22 -32 -28 -66 -28 -71 0 -112 69 -74 123 34 48 102 51
142 6z"/>
<path d="M2940 2775 c-143 -30 -253 -81 -372 -176 -236 -187 -366 -505 -329
-805 38 -317 229 -582 513 -713 129 -60 201 -75 358 -75 110 0 150 4 215 22
330 94 571 351 639 684 20 96 21 275 2 365 -74 352 -345 627 -688 697 -92 19
-248 19 -338 1z m297 -597 c78 -29 152 -103 182 -183 58 -152 -15 -322 -167
-393 -76 -36 -202 -38 -274 -5 -67 30 -141 104 -169 166 -33 73 -32 182 1 252
33 68 108 139 172 164 74 28 179 28 255 -1z"/>
</g>
</svg>
